<?xml version="1.0" standalone="no"?>
<!DOCTYPE svg PUBLIC "-//W3C//DTD SVG 20010904//EN"
 "http://www.w3.org/TR/2001/REC-SVG-20010904/DTD/svg10.dtd">
<svg version="1.0" xmlns="http://www.w3.org/2000/svg"
 width="1364.000000pt" height="432.000000pt" viewBox="0 0 1364.000000 432.000000"
 preserveAspectRatio="xMidYMid meet">
<metadata>
Created by potrace 1.16, written by Peter Selinger 2001-2019
</metadata>
<g transform="translate(0.000000,432.000000) scale(0.100000,-0.100000)"
fill="#005880" stroke="none">
<path d="M588 4170 c-36 -37 -40 -118 -8 -150 19 -19 33 -20 339 -20 362 0
347 4 339 -80 -8 -79 1 -85 131 -88 102 -2 112 -1 132 19 18 18 21 29 16 74
-3 33 -1 57 6 64 8 8 110 11 334 11 374 0 363 -3 363 91 0 43 -5 55 -29 80
-27 26 -36 29 -99 29 -38 0 -91 -7 -118 -16 -36 -12 -106 -18 -269 -23 -155
-5 -227 -11 -244 -20 -33 -18 -117 -16 -175 3 -36 12 -89 16 -225 16 -145 0
-191 4 -252 20 -41 11 -105 19 -144 19 -64 0 -72 -2 -97 -29z"/>
<path d="M555 3740 c-10 -11 -30 -20 -45 -20 -15 0 -35 -9 -45 -20 -10 -11
-24 -20 -32 -20 -25 0 -113 -97 -113 -124 0 -15 -8 -30 -20 -36 -13 -7 -20
-21 -20 -41 0 -16 -9 -42 -20 -57 -20 -26 -20 -40 -18 -362 l3 -335 515 0 515
0 5 60 5 60 717 0 716 0 24 -22 c18 -17 36 -23 70 -23 32 0 50 -6 63 -20 10
-11 31 -20 46 -20 18 0 32 -7 39 -20 6 -11 21 -20 33 -20 13 0 41 -17 65 -40
22 -22 47 -40 53 -40 15 0 119 -88 128 -109 15 -36 53 -90 66 -95 9 -3 15 -18
15 -35 0 -20 7 -34 20 -41 13 -7 20 -21 20 -39 0 -15 9 -36 19 -45 44 -40 44
-472 0 -512 -10 -9 -19 -30 -19 -45 0 -18 -7 -32 -20 -39 -13 -7 -20 -21 -20
-41 0 -16 -6 -32 -14 -35 -7 -3 -28 -28 -47 -57 -40 -63 -114 -135 -146 -143
-13 -4 -28 -15 -34 -25 -5 -11 -16 -19 -23 -19 -7 0 -21 -9 -31 -20 -10 -11
-26 -20 -35 -20 -9 0 -25 -9 -35 -20 -12 -13 -31 -20 -55 -20 -24 0 -43 -7
-55 -20 -14 -16 -31 -20 -75 -20 -42 0 -64 -5 -83 -20 -24 -19 -40 -20 -590
-20 -393 0 -568 -3 -572 -11 -4 -6 2 -21 14 -33 20 -21 21 -33 21 -218 0 -182
-1 -196 -20 -213 -15 -13 -20 -31 -20 -66 0 -38 -4 -51 -20 -59 -13 -7 -20
-21 -20 -40 0 -18 -7 -33 -19 -39 -10 -6 -21 -23 -24 -39 -4 -17 -29 -52 -61
-84 -31 -31 -56 -60 -56 -67 0 -8 199 -11 748 -11 728 0 749 1 787 20 27 14
59 20 105 20 53 0 69 4 83 20 12 15 29 20 63 20 31 0 54 7 71 20 14 11 40 20
58 20 19 0 39 8 50 20 10 11 30 20 45 20 15 0 39 9 53 20 14 11 34 20 45 20
10 0 31 9 45 20 14 11 32 20 40 20 7 0 22 9 32 20 10 11 23 20 30 20 7 0 20 9
30 20 10 11 27 20 37 20 10 0 38 18 60 40 23 22 50 40 59 40 27 0 301 278 338
343 17 30 37 57 44 60 7 2 25 30 41 60 15 31 34 58 42 61 8 3 14 19 14 35 0
20 7 34 20 41 13 7 20 21 20 40 0 19 7 33 20 40 15 8 20 21 20 49 0 24 8 47
20 61 13 15 20 37 20 65 0 29 6 47 20 60 17 15 20 31 20 94 0 54 6 89 20 120
30 65 30 373 0 431 -15 29 -20 59 -20 113 0 60 -4 78 -20 97 -13 15 -20 38
-20 64 0 25 -8 51 -20 66 -11 14 -20 39 -20 57 0 22 -6 36 -20 43 -13 7 -20
21 -20 40 0 19 -7 33 -20 40 -13 7 -20 21 -20 40 0 18 -7 33 -17 39 -10 5 -29
31 -43 58 -14 26 -37 60 -52 76 -16 16 -44 53 -64 82 -57 87 -206 225 -242
225 -4 0 -23 18 -42 40 -19 22 -42 40 -51 40 -9 0 -24 9 -34 20 -10 11 -24 20
-31 20 -7 0 -18 9 -24 20 -7 13 -21 20 -40 20 -19 0 -33 7 -40 20 -7 13 -21
20 -40 20 -19 0 -33 7 -40 20 -7 13 -21 20 -39 20 -15 0 -36 9 -46 20 -12 13
-31 20 -55 20 -24 0 -43 7 -55 20 -12 13 -31 20 -55 20 -23 0 -46 8 -60 20
-17 14 -37 20 -75 20 -37 0 -60 6 -78 20 -20 16 -40 20 -106 20 -57 0 -95 6
-131 20 -50 20 -74 20 -1129 20 -1065 0 -1078 0 -1096 -20z"/>
<path d="M4587 2732 l-27 -28 0 -325 0 -325 28 -27 28 -27 270 2 269 3 0 55 0
55 -215 5 -215 5 0 115 0 115 195 5 195 5 0 55 0 55 -195 5 -195 5 0 75 0 75
201 5 c215 5 234 10 234 56 0 13 -9 33 -20 44 -19 19 -33 20 -273 20 l-253 0
-27 -28z"/>
<path d="M5308 2726 l-28 -35 0 -311 0 -311 26 -35 c31 -41 81 -47 114 -14 19
19 20 33 20 240 0 179 3 220 14 220 13 0 66 -68 66 -84 0 -5 17 -29 38 -55 22
-25 51 -66 65 -91 14 -25 42 -61 62 -80 19 -18 35 -41 35 -49 0 -9 22 -40 49
-68 45 -50 51 -53 95 -53 36 0 52 5 71 25 l25 24 0 330 0 330 -27 26 c-36 33
-72 32 -106 -3 l-27 -28 -2 -209 c-3 -231 -9 -250 -53 -164 -14 29 -36 62 -48
74 -30 30 -57 67 -57 78 0 5 -17 30 -38 56 -21 25 -50 64 -65 86 -14 22 -46
61 -70 88 -40 42 -48 47 -88 47 -38 0 -48 -5 -71 -34z"/>
<path d="M6132 2748 c-9 -9 -12 -104 -12 -368 0 -264 3 -359 12 -368 25 -25
89 -14 121 21 l29 32 -6 147 c-7 170 -1 230 23 226 12 -2 18 -20 22 -68 4 -36
14 -82 23 -102 9 -21 16 -57 16 -80 0 -26 8 -55 20 -73 11 -16 20 -37 20 -44
0 -8 12 -28 27 -43 29 -31 104 -40 120 -15 20 31 53 125 53 149 0 15 9 51 20
80 11 29 20 67 20 84 0 44 19 93 41 105 18 9 19 3 20 -168 0 -107 5 -194 13
-218 11 -39 12 -40 64 -43 48 -3 53 -1 62 23 13 35 13 675 0 709 -9 25 -12 26
-105 26 -108 0 -135 -14 -135 -70 0 -17 -6 -43 -14 -58 -8 -16 -20 -57 -26
-92 -6 -36 -18 -75 -26 -87 -8 -12 -14 -40 -14 -61 0 -51 -21 -82 -44 -63 -18
15 -36 72 -36 115 0 16 -8 43 -19 60 -10 17 -21 57 -24 88 -3 32 -13 68 -21
80 -9 12 -16 32 -16 43 0 12 -5 26 -12 33 -16 16 -200 16 -216 0z"/>
<path d="M7228 2733 c-35 -39 -68 -97 -68 -120 0 -11 -9 -32 -20 -46 -11 -14
-20 -33 -20 -44 0 -10 -9 -31 -20 -48 -11 -16 -20 -38 -20 -48 0 -11 -9 -30
-20 -44 -11 -14 -20 -34 -20 -44 0 -11 -9 -36 -20 -56 -11 -21 -20 -44 -20
-51 0 -7 -9 -30 -19 -50 -37 -71 -45 -115 -27 -150 15 -29 21 -32 67 -32 39 0
51 4 55 18 3 9 14 34 24 54 11 20 20 46 20 56 0 11 9 31 21 46 20 26 21 26
158 26 131 0 139 -1 159 -23 12 -13 22 -34 23 -48 0 -13 13 -46 28 -74 26 -47
30 -50 72 -53 40 -2 47 1 72 33 l28 36 -20 33 c-12 18 -21 42 -21 52 0 11 -9
33 -20 49 -11 17 -20 37 -20 46 0 9 -9 26 -20 39 -11 13 -20 32 -20 44 0 12
-9 35 -20 51 -11 17 -20 41 -20 53 0 13 -9 35 -20 49 -11 14 -20 36 -20 48 0
12 -9 34 -20 48 -11 14 -20 35 -20 47 0 21 -38 80 -74 113 -32 29 -107 23
-138 -10z m92 -160 c5 -16 16 -41 25 -56 8 -16 15 -42 15 -58 0 -16 9 -43 21
-58 11 -16 19 -39 17 -52 -3 -23 -5 -24 -98 -24 l-95 0 -3 31 c-2 20 4 36 18
49 11 10 20 31 20 47 0 15 9 45 20 65 11 21 20 45 20 54 0 37 27 39 40 2z"/>
<path d="M7780 2740 c-19 -19 -20 -33 -20 -360 0 -327 1 -341 20 -360 24 -24
87 -27 116 -6 17 13 20 31 24 158 l5 143 50 3 c48 3 52 1 98 -45 70 -69 87
-89 87 -100 0 -13 89 -145 108 -160 46 -36 132 -1 132 53 0 14 -9 37 -20 51
-11 14 -20 33 -20 42 0 21 -127 161 -146 161 -8 0 -14 9 -14 20 0 16 7 20 36
20 65 0 154 104 154 182 0 68 -64 178 -103 178 -8 0 -22 9 -32 20 -17 19 -31
20 -237 20 -205 0 -219 -1 -238 -20z m397 -122 c53 -58 54 -86 7 -138 l-37
-41 -111 3 -111 3 -3 84 c-2 46 -1 90 2 98 4 10 34 13 119 13 105 0 115 -2
134 -22z"/>
<path d="M8547 2732 l-27 -28 0 -324 0 -324 27 -28 c21 -22 36 -28 68 -28 60
0 65 10 65 124 l0 101 67 63 c71 65 93 75 93 42 0 -11 17 -43 38 -70 39 -52
87 -123 112 -168 43 -77 61 -92 111 -92 52 0 99 29 99 60 0 16 -27 65 -57 105
-5 6 -21 30 -38 55 -16 25 -39 54 -50 66 -31 33 -55 67 -55 79 0 6 -19 31 -42
55 -38 39 -40 44 -24 54 10 6 30 21 44 34 15 13 47 40 72 60 65 52 109 104
110 129 0 33 -45 63 -95 63 -40 0 -47 -5 -196 -150 -85 -83 -161 -149 -169
-147 -12 2 -16 27 -18 136 -1 79 -7 140 -14 148 -20 25 -91 16 -121 -15z"/>
<path d="M9547 2689 c-25 -30 -25 -33 -11 -62 9 -16 18 -55 21 -86 4 -31 12
-66 20 -78 8 -12 17 -48 20 -80 3 -32 11 -68 19 -80 7 -11 18 -48 23 -81 5
-33 17 -74 25 -91 9 -16 16 -46 16 -66 0 -59 44 -105 99 -105 71 0 122 74 140
205 3 28 14 61 24 75 9 13 17 42 17 63 0 21 6 48 13 60 6 12 17 49 22 82 10
61 36 84 43 40 2 -11 12 -44 23 -73 10 -29 19 -65 19 -80 0 -15 9 -47 20 -71
11 -24 20 -60 20 -80 0 -20 9 -49 20 -66 11 -16 20 -45 20 -63 0 -83 115 -125
173 -64 15 15 27 38 27 50 0 12 9 39 20 59 11 21 20 57 20 80 0 24 9 60 20 80
11 22 20 57 20 83 0 28 8 56 20 75 11 17 20 47 20 70 0 22 9 60 20 84 27 59
25 95 -5 126 -50 49 -135 22 -135 -44 0 -16 -9 -48 -20 -72 -11 -24 -20 -61
-20 -82 0 -21 -8 -52 -17 -70 -9 -18 -19 -63 -22 -101 -6 -68 -24 -98 -37 -59
-3 10 -14 36 -25 59 -10 23 -19 56 -19 75 0 19 -9 48 -20 64 -11 17 -20 47
-20 70 0 23 -9 53 -20 70 -11 17 -20 38 -20 47 0 9 -11 29 -25 43 -55 54 -175
17 -175 -54 0 -14 -9 -39 -20 -56 -11 -17 -20 -47 -20 -70 0 -23 -9 -53 -20
-70 -12 -17 -20 -47 -20 -70 0 -46 -23 -85 -49 -85 -24 0 -31 19 -31 79 0 27
-7 56 -16 70 -9 12 -20 56 -25 97 -4 41 -15 84 -24 96 -8 13 -15 32 -15 43 0
32 -20 45 -66 45 -34 0 -46 -5 -67 -31z"/>
<path d="M10829 2697 c-27 -24 -69 -103 -69 -129 0 -8 -9 -27 -20 -41 -11 -14
-20 -36 -20 -50 0 -13 -9 -32 -20 -42 -11 -10 -20 -29 -20 -42 0 -14 -9 -36
-20 -50 -11 -14 -20 -35 -20 -47 0 -11 -9 -34 -20 -51 -11 -16 -20 -38 -20
-48 0 -10 -9 -35 -19 -55 -37 -71 -45 -115 -27 -150 15 -29 21 -32 67 -32 39
0 51 4 55 18 3 9 14 34 24 54 11 20 20 46 20 56 0 11 9 31 21 46 20 26 21 26
158 26 131 0 139 -1 159 -23 12 -13 22 -32 23 -43 0 -10 12 -44 27 -74 26 -53
29 -55 71 -58 38 -3 47 1 72 29 34 39 34 36 9 74 -11 17 -20 39 -20 50 0 11
-9 34 -20 50 -11 17 -20 36 -20 43 0 8 -9 25 -20 39 -11 14 -20 35 -20 47 0
11 -9 35 -20 51 -11 17 -20 39 -20 50 0 11 -9 34 -20 50 -11 17 -20 40 -20 51
0 12 -9 33 -20 47 -11 14 -20 35 -20 47 0 21 -22 54 -70 108 -29 31 -104 31
-141 -1z m104 -193 c11 -27 22 -65 24 -84 3 -19 14 -45 25 -56 12 -14 18 -32
16 -50 l-3 -29 -95 0 -95 0 -3 31 c-2 20 4 36 18 49 12 11 20 31 20 50 0 17 7
40 15 51 8 10 15 24 15 31 0 26 21 64 32 61 7 -3 21 -27 31 -54z"/>
<path d="M11308 2697 c-36 -29 -35 -48 2 -75 25 -19 42 -22 118 -22 55 0 92
-4 100 -12 9 -9 12 -83 12 -272 0 -189 4 -273 14 -306 l13 -45 53 0 c51 0 52
0 76 45 24 45 25 47 23 306 -1 144 2 267 5 273 5 7 43 11 99 11 68 0 99 4 115
16 28 19 29 57 2 84 -19 19 -33 20 -312 20 -289 -1 -293 -1 -320 -23z"/>
<path d="M12067 2692 l-27 -28 0 -325 0 -325 28 -27 28 -27 270 2 269 3 0 55
0 55 -215 5 -215 5 -3 106 c-2 80 1 109 11 117 9 7 80 13 198 14 l184 3 0 55
0 55 -184 3 c-119 1 -189 6 -198 14 -10 8 -13 31 -11 77 l3 66 203 5 c187 5
205 7 218 24 19 27 18 52 -6 76 -19 19 -33 20 -273 20 l-253 0 -27 -28z"/>
<path d="M12780 2700 c-19 -19 -20 -33 -20 -358 l0 -339 23 -21 c27 -26 83
-29 113 -8 17 13 20 31 24 158 l5 143 50 3 c47 3 53 0 95 -41 45 -44 98 -111
122 -157 46 -88 80 -120 128 -120 72 0 109 70 60 115 -11 10 -20 28 -20 40 0
23 -127 165 -148 165 -6 0 -12 9 -12 20 0 16 7 20 30 20 46 0 109 51 142 117
l28 56 -22 66 c-22 66 -63 121 -91 121 -8 0 -24 9 -37 20 -22 19 -37 20 -237
20 -200 0 -214 -1 -233 -20z m385 -106 c17 -7 55 -74 55 -99 0 -8 -16 -33 -36
-55 l-37 -41 -111 3 -111 3 -3 84 c-2 46 -1 90 2 98 6 14 207 20 241 7z"/>
<path d="M188 2610 c-27 -28 -28 -32 -28 -139 0 -61 3 -111 8 -111 100 -7
1162 -5 1175 2 14 7 17 24 17 114 0 103 -1 106 -29 135 l-29 29 -544 0 -543
-1 -27 -29z"/>
<path d="M727 2203 c-4 -3 -7 -21 -7 -38 0 -19 -8 -39 -20 -50 -11 -10 -20
-30 -20 -44 0 -14 -9 -37 -20 -51 -11 -14 -20 -29 -20 -33 0 -5 -9 -20 -20
-34 -11 -14 -20 -34 -20 -44 0 -10 -9 -23 -20 -29 -11 -6 -20 -21 -20 -33 0
-12 -17 -40 -37 -62 -20 -22 -48 -60 -61 -85 -13 -24 -39 -59 -59 -77 -19 -18
-46 -54 -59 -79 -13 -25 -40 -61 -60 -82 -19 -20 -38 -49 -41 -65 -3 -15 -14
-32 -24 -38 -12 -6 -19 -21 -19 -39 0 -19 -7 -33 -20 -40 -15 -8 -20 -21 -20
-49 0 -25 -7 -44 -20 -56 -19 -17 -20 -31 -20 -230 0 -198 1 -214 20 -235 11
-13 20 -32 20 -43 0 -33 40 -88 131 -179 64 -64 95 -88 113 -88 15 0 30 -8 36
-20 7 -14 21 -20 44 -20 18 0 45 -9 59 -20 39 -31 401 -31 440 0 14 11 39 20
56 20 20 0 34 7 41 20 6 12 21 20 36 20 18 0 49 24 112 87 92 93 132 149 132
187 0 13 9 31 20 41 19 17 20 31 20 222 0 190 -1 207 -20 230 -12 16 -20 41
-20 64 0 28 -5 41 -20 49 -13 7 -20 21 -20 41 0 17 -6 32 -15 35 -8 3 -24 26
-36 50 -11 25 -41 66 -65 92 -24 26 -44 54 -44 62 0 8 -27 44 -60 80 -33 36
-60 73 -60 83 0 10 -18 37 -40 59 -23 25 -40 52 -40 65 0 13 -6 26 -14 29 -8
3 -27 31 -42 62 -16 31 -36 68 -46 81 -10 13 -18 34 -18 46 0 12 -9 30 -20 40
-11 10 -20 31 -20 46 0 44 -10 59 -39 59 -15 0 -31 -3 -34 -7z m471 -885 c2
-14 12 -34 23 -44 10 -9 19 -29 19 -43 0 -15 8 -38 17 -51 18 -25 35 -141 35
-230 -1 -125 -23 -205 -75 -280 -9 -13 -17 -33 -17 -43 0 -10 -9 -21 -20 -24
-10 -3 -22 -14 -26 -25 -6 -20 -25 -20 -32 1 -2 7 5 15 16 17 16 5 20 17 25
70 2 35 12 75 21 89 26 40 23 391 -4 445 -19 38 -28 129 -13 144 13 12 28 0
31 -26z"/>
<path d="M5628 1453 c-35 -39 -68 -97 -68 -120 0 -11 -9 -32 -20 -46 -11 -14
-20 -33 -20 -44 0 -10 -9 -31 -20 -48 -11 -16 -20 -38 -20 -48 0 -11 -9 -30
-20 -44 -11 -14 -20 -34 -20 -44 0 -11 -9 -36 -20 -56 -11 -21 -20 -44 -20
-51 0 -7 -9 -30 -19 -50 -37 -71 -45 -115 -27 -150 15 -29 21 -32 67 -32 39 0
51 4 55 18 3 9 14 34 24 54 11 20 20 46 20 56 0 11 9 31 21 46 20 26 21 26
158 26 131 0 139 -1 159 -23 12 -13 22 -34 23 -48 0 -13 13 -46 28 -74 26 -47
30 -50 72 -53 40 -2 47 1 72 33 l28 36 -20 33 c-12 18 -21 42 -21 52 0 11 -9
33 -20 49 -11 17 -20 37 -20 46 0 9 -9 26 -20 39 -11 13 -20 32 -20 44 0 12
-9 35 -20 51 -11 17 -20 41 -20 53 0 13 -9 35 -20 49 -11 14 -20 36 -20 48 0
12 -9 34 -20 48 -11 14 -20 35 -20 48 0 19 -57 102 -85 121 -5 4 -31 8 -56 8
-37 0 -50 -5 -71 -27z m92 -160 c5 -16 16 -41 25 -56 8 -16 15 -42 15 -58 0
-16 9 -43 21 -58 11 -16 19 -39 17 -52 -3 -23 -5 -24 -98 -24 l-95 0 -3 31
c-2 20 4 36 18 49 11 10 20 31 20 47 0 15 9 45 20 65 11 21 20 45 20 54 0 37
27 39 40 2z"/>
<path d="M6297 1460 c-14 -11 -29 -20 -34 -20 -6 0 -31 -21 -56 -46 l-47 -46
0 -72 c0 -65 3 -76 31 -114 17 -23 39 -42 48 -42 10 0 26 -9 36 -20 13 -15 31
-20 66 -20 38 0 51 -4 59 -20 9 -17 21 -20 71 -20 55 0 62 -3 94 -36 34 -35
45 -75 27 -99 -31 -42 -82 -65 -148 -65 l-67 0 -48 53 c-27 28 -49 59 -49 68
0 26 -22 39 -67 39 -40 0 -44 -3 -63 -40 -20 -40 -20 -40 -1 -77 25 -49 103
-123 128 -123 11 0 28 -9 38 -20 27 -30 253 -30 280 0 10 11 27 20 37 20 25 0
88 51 88 71 0 9 9 26 20 39 28 32 28 133 1 174 -26 39 -70 76 -91 76 -9 0 -27
9 -40 20 -16 14 -37 20 -70 20 -34 0 -52 5 -65 20 -13 15 -31 20 -66 20 -40 0
-51 4 -73 31 -34 40 -33 59 7 97 30 29 39 32 96 32 l64 0 56 -61 c56 -60 57
-60 106 -57 l50 3 3 51 c3 46 0 54 -33 92 -20 23 -46 44 -58 48 -12 4 -33 15
-46 25 -36 29 -247 28 -284 -1z"/>
<path d="M7017 1460 c-14 -11 -29 -20 -34 -20 -5 0 -30 -21 -56 -47 l-47 -47
0 -71 c0 -64 3 -75 31 -113 20 -27 39 -42 52 -42 12 0 28 -9 35 -20 9 -16 23
-20 62 -20 39 0 52 -4 60 -20 9 -17 21 -20 74 -20 59 0 64 -2 94 -36 31 -35
41 -76 24 -99 -31 -42 -82 -65 -148 -65 l-67 0 -48 53 c-27 28 -49 59 -49 68
0 26 -22 39 -67 39 -40 0 -44 -3 -63 -40 -19 -38 -20 -42 -4 -73 24 -48 105
-127 130 -127 11 0 29 -9 39 -20 27 -30 253 -30 280 0 10 11 27 20 37 20 25 0
88 51 88 71 0 9 9 26 20 39 16 18 20 37 20 90 0 66 -1 68 -44 114 -25 26 -54
46 -65 46 -12 0 -29 9 -38 20 -13 15 -30 20 -69 20 -38 0 -55 5 -69 20 -13 15
-31 20 -66 20 -40 0 -51 4 -73 31 -34 40 -33 59 7 97 30 29 39 32 96 32 l64 0
56 -61 c56 -60 57 -60 106 -57 l50 3 3 52 c3 50 1 54 -42 98 -25 25 -51 45
-57 45 -6 0 -22 9 -36 20 -22 17 -41 20 -143 20 -102 0 -121 -3 -143 -20z"/>
<path d="M7800 1460 c-7 -13 -21 -20 -38 -20 -34 0 -162 -125 -162 -158 0 -11
-9 -39 -20 -63 -14 -31 -20 -66 -20 -119 0 -53 6 -88 20 -119 11 -24 20 -53
20 -65 0 -33 128 -156 162 -156 17 0 31 -8 38 -20 16 -30 257 -30 285 0 10 11
28 20 41 20 13 0 26 5 30 11 3 6 19 18 35 28 31 19 89 93 89 113 0 7 9 27 20
43 17 26 20 47 20 145 0 98 -3 119 -20 145 -11 17 -20 36 -20 43 0 20 -58 94
-89 113 -16 10 -32 22 -35 28 -4 6 -19 11 -34 11 -16 0 -32 8 -40 20 -11 18
-23 20 -142 20 -119 0 -130 -2 -140 -20z m269 -151 c28 -29 51 -59 51 -68 0
-9 9 -29 20 -46 15 -22 20 -47 20 -95 0 -48 -5 -73 -20 -95 -11 -16 -20 -36
-20 -44 0 -17 -44 -70 -83 -98 -44 -33 -142 -32 -189 0 -61 42 -88 73 -88 103
-1 16 -7 40 -15 54 -8 14 -14 50 -14 80 0 30 6 66 14 80 8 14 14 38 15 54 0
29 23 56 84 104 25 18 43 22 102 22 l71 0 52 -51z"/>
<path d="M8645 1460 c-10 -11 -28 -20 -39 -20 -41 0 -166 -138 -166 -184 0 -9
-9 -41 -19 -70 -28 -81 -15 -177 42 -291 28 -56 110 -135 141 -135 15 0 30 -8
36 -20 16 -31 264 -31 280 0 6 12 21 20 36 20 27 0 124 88 124 112 0 7 9 27
20 43 11 17 20 36 20 43 0 25 -54 82 -78 82 -30 0 -82 -48 -82 -75 0 -11 -22
-44 -50 -73 l-50 -52 -73 0 c-78 0 -92 6 -149 65 -16 17 -30 39 -32 50 -3 11
-10 45 -16 76 -7 31 -10 71 -7 90 4 19 10 57 15 86 9 58 26 81 90 124 37 25
53 29 109 29 l66 0 48 -52 c27 -29 49 -56 49 -60 0 -40 93 -63 124 -32 36 35
38 53 15 92 -37 60 -114 132 -143 132 -15 0 -30 8 -36 20 -10 18 -21 20 -134
20 -110 0 -125 -2 -141 -20z"/>
<path d="M9267 1452 l-27 -28 0 -324 0 -324 27 -28 c33 -34 83 -38 113 -8 19
19 20 33 20 360 0 327 -1 341 -20 360 -30 30 -80 26 -113 -8z"/>
<path d="M9788 1413 c-35 -39 -68 -97 -68 -120 0 -11 -9 -32 -20 -46 -11 -14
-20 -36 -20 -50 0 -13 -9 -32 -20 -42 -11 -10 -20 -30 -20 -45 0 -15 -9 -39
-20 -53 -11 -14 -20 -33 -20 -44 0 -10 -9 -31 -20 -48 -11 -16 -20 -38 -20
-48 0 -10 -9 -35 -19 -55 -37 -71 -45 -115 -27 -150 15 -29 21 -32 67 -32 39
0 51 4 55 18 3 9 14 34 24 54 11 20 20 46 20 56 0 11 9 31 21 46 20 26 21 26
159 26 130 0 141 -1 160 -22 11 -12 20 -31 20 -42 0 -12 13 -46 28 -76 27 -53
29 -55 72 -58 41 -2 47 0 73 33 l28 36 -20 33 c-12 18 -21 42 -21 52 0 11 -9
33 -20 49 -11 17 -20 36 -20 43 0 8 -9 25 -20 39 -11 14 -20 35 -20 47 0 11
-9 35 -20 51 -11 17 -20 39 -20 50 0 11 -9 34 -20 50 -11 17 -20 40 -20 51 0
12 -9 33 -20 47 -11 14 -20 35 -20 46 0 24 -63 116 -86 125 -42 16 -100 6
-126 -21z m105 -189 c11 -27 22 -65 25 -84 2 -19 13 -46 24 -61 11 -14 18 -37
16 -50 -3 -23 -5 -24 -98 -24 -93 0 -95 1 -98 24 -2 13 6 36 17 52 12 15 21
41 21 57 0 15 7 37 15 48 8 10 15 24 15 31 0 26 21 64 32 61 7 -3 21 -27 31
-54z"/>
<path d="M10268 1417 c-36 -29 -35 -48 2 -75 25 -19 42 -22 114 -22 128 0 116
29 117 -284 0 -180 5 -284 13 -311 11 -39 13 -40 63 -43 49 -3 51 -2 74 35 24
37 24 43 26 307 1 148 5 276 7 283 4 9 31 13 98 13 69 0 100 4 116 16 28 19
29 57 2 84 -19 19 -33 20 -312 20 -289 -1 -293 -1 -320 -23z"/>
<path d="M11027 1412 l-27 -28 0 -324 0 -324 27 -28 c33 -34 83 -38 113 -8 19
19 20 33 20 360 0 327 -1 341 -20 360 -30 30 -80 26 -113 -8z"/>
<path d="M11520 1420 c-6 -12 -21 -20 -36 -20 -35 0 -164 -127 -164 -162 0
-13 -7 -34 -16 -47 -28 -40 -31 -186 -5 -245 11 -27 21 -58 21 -70 0 -33 128
-156 162 -156 17 0 31 -8 38 -20 16 -31 263 -31 282 0 7 11 23 20 36 20 42 0
162 107 162 145 0 6 9 27 20 48 29 54 29 248 0 292 -11 17 -20 37 -20 45 0 39
-117 150 -157 150 -11 0 -28 9 -38 20 -16 18 -31 20 -146 20 -118 0 -129 -2
-139 -20z m269 -151 c28 -29 51 -59 51 -68 0 -9 9 -29 20 -46 15 -22 20 -47
20 -95 0 -48 -5 -73 -20 -95 -11 -16 -20 -37 -20 -46 0 -9 -23 -39 -51 -68
l-52 -51 -71 0 c-78 0 -91 6 -152 70 -20 20 -34 46 -34 60 -1 14 -7 36 -15 50
-8 14 -14 50 -14 80 0 30 6 66 14 80 8 14 14 38 15 54 0 20 11 38 34 60 70 63
76 66 152 66 l71 0 52 -51z"/>
<path d="M12188 1406 l-28 -35 0 -311 0 -311 28 -35 c32 -40 79 -47 112 -14
19 19 20 33 20 240 0 179 3 220 14 220 13 0 66 -68 66 -86 0 -5 17 -27 37 -49
20 -22 48 -60 61 -85 13 -24 37 -58 54 -75 17 -16 36 -43 44 -60 7 -16 33 -51
57 -77 40 -44 48 -48 90 -48 36 0 52 6 72 25 l25 26 0 329 0 329 -27 26 c-36
33 -72 32 -106 -3 l-27 -28 -2 -209 c-3 -232 -9 -250 -53 -163 -14 29 -33 58
-41 64 -14 11 -64 81 -64 90 0 5 -26 40 -143 189 -62 79 -63 80 -112 83 -47 2
-52 0 -77 -32z"/>
</g>
</svg>
